<svg width="2307" height="1442" viewBox="0 0 2307 1442" fill="none" xmlns="http://www.w3.org/2000/svg">
<path d="M949.119 651.78C996.993 627.699 1033.19 600.878 1057.99 571.894C1102.11 519.694 1123.89 450.478 1123.89 364.68C1123.89 281.188 1102.11 209.81 1058.57 149.967C985.89 52.4885 862.888 2.59559 688.984 0H0V1406.37H642.407C714.795 1406.37 781.848 1400.17 843.854 1387.48C905.859 1374.65 959.501 1351.15 1004.92 1316.83C1045.3 1286.98 1079.04 1249.92 1105.86 1206.23C1148.26 1140.18 1169.46 1065.34 1169.46 981.996C1169.46 901.245 1150.85 832.462 1113.94 775.936C1076.59 719.41 1021.8 678.025 949.119 651.78ZM284.217 244.273H594.533C662.739 244.273 718.977 251.628 763.102 266.192C814.149 287.389 839.672 330.504 839.672 396.259C839.672 455.237 820.205 496.478 781.704 519.694C742.914 542.91 692.589 554.59 630.871 554.59H284.217V244.273ZM774.926 1137.59C740.607 1154.17 692.3 1162.39 630.439 1162.39H284.217V787.327H635.197C696.338 787.76 743.924 795.835 777.955 810.976C838.518 838.374 868.656 888.555 868.656 961.953C868.656 1048.47 837.509 1106.73 774.926 1137.59Z" fill="white"/>
<path d="M2085.26 65.6084H1474.29V240.666H2085.26V65.6084Z" fill="white"/>
<path d="M2297.53 756.471C2284.84 674.998 2256.86 603.331 2213.31 541.47C2165.58 471.389 2105.02 420.054 2031.33 387.609C1957.94 355.02 1875.31 338.726 1783.31 338.87C1628.87 338.87 1503.42 387.177 1406.37 483.069C1309.62 579.25 1261.17 717.537 1261.17 897.786C1261.17 1090 1314.66 1228.87 1422.24 1314.09C1529.38 1399.46 1653.1 1441.99 1793.55 1441.99C1963.56 1441.99 2095.79 1391.38 2190.24 1290.44C2250.66 1226.7 2284.84 1163.98 2292.33 1102.4H2010.86C1994.56 1132.83 1975.67 1156.62 1954.04 1173.93C1914.82 1205.65 1863.77 1221.51 1801.19 1221.51C1741.64 1221.51 1691.17 1208.39 1649.06 1182.29C1579.56 1140.47 1543.22 1067.22 1538.61 962.964H2306.75C2307.91 873.128 2305.02 804.057 2297.53 756.471ZM1545.53 783.436C1555.62 715.807 1580.13 662.165 1619.07 622.51C1658 582.999 1713.09 563.1 1783.6 562.956C1848.63 562.956 1903 581.557 1947.27 618.905C1990.96 656.541 2015.62 711.192 2020.66 783.436H1545.53Z" fill="white"/>
</svg>
