<svg width="2248" height="2251" viewBox="0 0 2248 2251" fill="none" xmlns="http://www.w3.org/2000/svg">
<path d="M1533.32 2172.81C1535.2 2172.24 1536.98 2171.49 1538.86 2170.84C2684.11 1715.74 2367.3 0 1125.1 0C501.701 0 0 508.27 0 1125.32C0 1906.2 790.758 2463.42 1533.32 2172.81ZM495.138 1881.07C575.02 1746.78 833.512 1367.92 1274.74 1237.2C1367 1472.48 1431.69 1746.97 1438.07 2058.21C1103.72 2170.65 751.098 2094.97 495.138 1881.07V1881.07ZM1576.36 1999.51C1564.08 1700.45 1503.04 1435.25 1416.03 1205.5C1611.24 1175.02 1837.19 1195.37 2093.44 1298.06C2038.96 1603.86 1843.48 1860.9 1576.36 1999.51V1999.51ZM2108.16 1152.61C1825.94 1046.55 1577.2 1033.33 1361.93 1074.4C1328.65 999.378 1293.68 927.264 1256.64 860.87C1586.95 728.926 1782.16 568.099 1869.54 482.95C2023.77 661.501 2115.38 892.66 2108.16 1152.61V1152.61ZM1769.69 382.796C1690.18 458.474 1502.95 611.33 1182.76 736.335C1025.81 488.014 857.983 312.839 751.661 214.749C1091.82 74.6462 1484.1 134.476 1769.69 382.796V382.796ZM617.211 283.487C697.468 354.101 873.64 523.649 1043.62 785.849C810.166 861.057 517.452 916.292 161.452 924.075C218.082 652.686 387.222 422.745 617.211 283.487V283.487ZM143.638 1065.3C542.111 1058.83 864.639 995.908 1119.57 910.759C1154.82 972.558 1188.29 1039.89 1220.45 1109.85C776.507 1251.26 499.076 1616.33 392.847 1781.19C221.457 1589.89 126.949 1340.26 143.638 1065.3V1065.3Z" fill="white"/>
</svg>
