<svg width="2307" height="2251" viewBox="0 0 2307 2251" fill="none" xmlns="http://www.w3.org/2000/svg">
<path d="M2152.25 574.716C2049.1 397.983 1909.19 258.063 1732.47 154.925C1555.73 51.7821 1362.78 0.223633 1153.48 0.223633C944.212 0.223633 751.198 51.7979 574.492 154.925C397.759 258.058 257.85 397.983 154.702 574.716C51.569 751.443 0 944.431 0 1153.67C0 1405.02 73.3318 1631.04 220.032 1831.79C366.717 2032.55 556.212 2171.47 788.501 2248.56C815.54 2253.58 835.556 2250.05 848.571 2238.06C861.591 2226.06 868.093 2211.02 868.093 2193.02C868.093 2190.02 867.835 2163 867.335 2111.92C866.82 2060.85 866.578 2016.29 866.578 1978.27L832.032 1984.25C810.006 1988.28 782.22 1989.99 748.673 1989.51C715.143 1989.04 680.334 1985.53 644.294 1978.99C608.238 1972.52 574.702 1957.5 543.66 1933.97C512.633 1910.44 490.608 1879.64 477.588 1841.61L462.569 1807.05C452.558 1784.04 436.798 1758.48 415.266 1730.46C393.735 1702.42 371.962 1683.41 349.936 1673.4L339.42 1665.87C332.413 1660.87 325.911 1654.83 319.898 1647.83C313.891 1640.83 309.393 1633.82 306.389 1626.81C303.38 1619.78 305.873 1614.02 313.896 1609.5C321.918 1604.99 336.416 1602.79 357.453 1602.79L387.48 1607.28C407.507 1611.29 432.279 1623.28 461.827 1643.32C491.36 1663.34 515.637 1689.37 534.664 1721.4C557.706 1762.46 585.465 1793.75 618.023 1815.28C650.554 1836.81 683.353 1847.56 716.389 1847.56C749.426 1847.56 777.959 1845.05 801.999 1840.07C826.014 1835.06 848.544 1827.54 869.581 1817.53C878.593 1750.42 903.128 1698.86 943.166 1662.82C886.099 1656.82 834.793 1647.79 789.221 1635.78C743.676 1623.75 696.61 1604.24 648.055 1577.18C599.474 1550.15 559.173 1516.6 527.142 1476.57C495.105 1436.51 468.813 1383.93 448.302 1318.86C427.781 1253.77 417.518 1178.68 417.518 1093.57C417.518 972.396 457.077 869.279 536.179 784.163C499.124 693.062 502.623 590.934 546.685 477.79C575.723 468.769 618.786 475.539 675.852 498.059C732.929 520.59 774.718 539.891 801.263 555.893C827.807 571.891 849.076 585.447 865.099 596.442C958.237 570.418 1054.35 557.403 1153.47 557.403C1252.59 557.403 1348.73 570.418 1441.87 596.442L1498.94 560.412C1537.97 536.372 1584.06 514.34 1637.09 494.314C1690.16 474.297 1730.74 468.784 1758.79 477.806C1803.83 590.955 1807.84 693.077 1770.78 784.179C1849.88 869.295 1889.45 972.438 1889.45 1093.59C1889.45 1178.69 1879.15 1254.02 1858.66 1319.61C1838.14 1385.22 1811.63 1437.75 1779.1 1477.32C1746.53 1516.88 1705.97 1550.18 1657.41 1577.19C1608.85 1604.23 1561.77 1623.75 1516.22 1635.77C1470.65 1647.8 1419.35 1656.84 1362.28 1662.85C1414.33 1707.89 1440.36 1778.98 1440.36 1876.1V2192.98C1440.36 2210.98 1446.62 2226.01 1459.15 2238.02C1471.66 2250.01 1491.43 2253.54 1518.47 2248.52C1750.79 2171.43 1940.28 2032.51 2086.96 1831.75C2233.63 1631 2306.98 1404.98 2306.98 1153.63C2306.93 944.415 2255.34 751.443 2152.25 574.716Z" fill="white"/>
</svg>
