<svg width="2843" height="2844" viewBox="0 0 2843 2844" fill="none" xmlns="http://www.w3.org/2000/svg">
<path d="M2835.77 836.012C2829.11 684.923 2804.68 581.051 2769.68 491.044C2733.57 395.504 2678.02 309.968 2605.25 238.861C2534.14 166.647 2448.04 110.534 2353.61 74.9911C2263.08 39.9909 2159.75 15.558 2008.66 8.89651C1856.44 1.67081 1808.12 0 1422.05 0C1035.99 0 987.665 1.67081 836.012 8.33234C684.923 14.9939 581.051 39.4484 491.066 74.4269C395.504 110.534 309.968 166.083 238.861 238.861C166.647 309.968 110.555 396.068 74.9911 490.502C39.9909 581.051 15.558 684.359 8.89651 835.448C1.67081 987.665 0 1035.99 0 1422.05C0 1808.12 1.67081 1856.44 8.33234 2008.09C14.9939 2159.18 39.4484 2263.06 74.4486 2353.06C110.555 2448.6 166.647 2534.14 238.861 2605.25C309.968 2677.46 396.068 2733.57 490.502 2769.12C581.051 2804.12 684.359 2828.55 835.469 2835.21C987.101 2841.89 1035.45 2843.54 1421.51 2843.54C1807.58 2843.54 1855.9 2841.89 2007.55 2835.21C2158.64 2828.55 2262.51 2804.12 2352.5 2769.12C2543.6 2695.23 2694.69 2544.14 2768.57 2353.06C2803.55 2262.51 2828.01 2159.18 2834.67 2008.09C2841.33 1856.44 2843 1808.12 2843 1422.05C2843 1035.99 2842.44 987.665 2835.77 836.012ZM2579.71 1996.99C2573.59 2135.86 2550.26 2210.85 2530.82 2260.84C2483.04 2384.72 2384.72 2483.04 2260.84 2530.82C2210.85 2550.26 2135.31 2573.59 1996.99 2579.68C1847 2586.37 1802.02 2588.02 1422.62 2588.02C1043.21 2588.02 997.668 2586.37 848.228 2579.68C709.356 2573.59 634.365 2550.26 584.371 2530.82C522.724 2508.04 466.611 2471.93 421.065 2424.71C373.849 2378.6 337.742 2323.05 314.958 2261.41C295.516 2211.41 272.19 2135.86 266.093 1997.55C259.409 1847.57 257.76 1802.56 257.76 1423.16C257.76 1043.76 259.409 998.21 266.093 848.792C272.19 709.92 295.516 634.929 314.958 584.935C337.742 523.267 373.849 467.175 421.63 421.608C467.718 374.391 523.267 338.284 584.935 315.522C634.929 296.08 710.484 272.754 848.792 266.635C998.775 259.973 1043.78 258.303 1423.16 258.303C1803.13 258.303 1848.11 259.973 1997.55 266.635C2136.42 272.754 2211.41 296.08 2261.41 315.522C2323.05 338.284 2379.17 374.391 2424.71 421.608C2471.93 467.718 2508.04 523.267 2530.82 584.935C2550.26 634.929 2573.59 710.463 2579.71 848.792C2586.37 998.775 2588.04 1043.76 2588.04 1423.16C2588.04 1802.56 2586.37 1847 2579.71 1996.99Z" fill="white"/>
<path d="M1422.05 691.585C1018.78 691.585 691.584 1018.76 691.584 1422.05C691.584 1825.35 1018.78 2152.52 1422.05 2152.52C1825.35 2152.52 2152.52 1825.35 2152.52 1422.05C2152.52 1018.76 1825.35 691.585 1422.05 691.585ZM1422.05 1895.89C1160.43 1895.89 948.216 1683.7 948.216 1422.05C948.216 1160.41 1160.43 948.217 1422.05 948.217C1683.7 948.217 1895.89 1160.41 1895.89 1422.05C1895.89 1683.7 1683.7 1895.89 1422.05 1895.89V1895.89Z" fill="white"/>
<path d="M2351.96 662.701C2351.96 756.874 2275.6 833.232 2181.4 833.232C2087.23 833.232 2010.87 756.874 2010.87 662.701C2010.87 568.506 2087.23 492.17 2181.4 492.17C2275.6 492.17 2351.96 568.506 2351.96 662.701V662.701Z" fill="white"/>
</svg>
