<svg width="2844" height="2844" viewBox="0 0 2844 2844" fill="none" xmlns="http://www.w3.org/2000/svg">
<path d="M2843.29 2844V2843.88H2844V1800.85C2844 1290.59 2734.15 897.521 2137.62 897.521C1850.85 897.521 1658.41 1054.89 1579.84 1204.08H1571.55V945.158H1005.95V2843.88H1594.89V1903.7C1594.89 1656.16 1641.82 1416.79 1948.37 1416.79C2250.43 1416.79 2254.93 1699.29 2254.93 1919.58V2844H2843.29Z" fill="white"/>
<path d="M46.9243 945.272H636.58V2844H46.9243V945.272Z" fill="white"/>
<path d="M341.517 0C152.983 0 0 152.983 0 341.517C0 530.05 152.983 686.233 341.517 686.233C530.05 686.233 683.033 530.05 683.033 341.517C682.915 152.983 529.932 0 341.517 0V0Z" fill="white"/>
</svg>
