<svg width="2843" height="2251" viewBox="0 0 2843 2251" fill="none" xmlns="http://www.w3.org/2000/svg">
<path d="M2616.15 264.552L2843 47.508V0H2057.15L1497.08 1394.2L859.889 0H35.8929V47.508L300.884 366.558C326.708 390.134 340.212 424.61 336.777 459.322V1713.13C344.951 1758.27 330.262 1804.71 298.515 1837.53L0 2199.35V2246.26H846.385V2198.75L547.87 1837.53C515.531 1804.59 500.25 1758.98 506.765 1713.13V628.621L1249.74 2246.85H1336.09L1974.94 628.621V1917.73C1974.94 1951.74 1974.94 1958.73 1952.67 1981L1722.86 2203.37V2251H2837.79V2203.49L2616.27 1986.57C2596.84 1971.88 2586.77 1947.23 2590.92 1923.3V327.817C2586.77 303.767 2596.73 279.124 2616.15 264.552V264.552Z" fill="white"/>
</svg>
